<?xml version="1.0" standalone="no"?>
<!DOCTYPE svg PUBLIC "-//W3C//DTD SVG 20010904//EN"
 "http://www.w3.org/TR/2001/REC-SVG-20010904/DTD/svg10.dtd">
<svg version="1.0" xmlns="http://www.w3.org/2000/svg"
 width="64.000000pt" height="64.000000pt" viewBox="0 0 64.000000 64.000000"
 preserveAspectRatio="xMidYMid meet">

<g transform="translate(0.000000,64.000000) scale(0.100000,-0.100000)"
fill="#000000" stroke="none">
<path d="M174 627 c-2 -7 -3 -69 -2 -138 l3 -124 145 0 145 0 0 135 0 135
-143 3 c-111 2 -144 0 -148 -11z m56 -10 c0 -2 -9 -12 -20 -22 -19 -18 -20
-17 -20 3 0 15 6 22 20 22 11 0 20 -2 20 -3z m45 -17 c-10 -11 -25 -20 -33
-20 -12 0 -12 4 3 20 10 11 25 20 33 20 12 0 12 -4 -3 -20z m60 0 c-10 -11
-25 -20 -33 -20 -12 0 -12 4 3 20 10 11 25 20 33 20 12 0 12 -4 -3 -20z m60 0
c-10 -11 -25 -20 -33 -20 -12 0 -12 4 3 20 10 11 25 20 33 20 12 0 12 -4 -3
-20z m55 0 c0 -14 -7 -20 -22 -20 -20 0 -21 1 -3 20 10 11 20 20 22 20 1 0 3
-9 3 -20z m0 -130 l0 -90 -130 0 -130 0 0 90 0 90 130 0 130 0 0 -90z"/>
<path d="M280 514 c0 -3 10 -14 23 -24 18 -15 20 -21 10 -31 -11 -11 -13 -10
-13 4 0 9 -4 17 -10 17 -5 0 -10 -13 -10 -30 0 -16 3 -30 6 -30 13 0 74 42 74
50 0 5 -15 18 -34 29 -34 22 -46 25 -46 15z"/>
<path d="M182 277 c-56 -57 -54 -70 3 -18 l45 42 93 -3 c91 -3 92 -3 92 -28 0
-24 -3 -25 -62 -28 -101 -5 -73 -22 35 -22 96 0 99 1 127 30 18 19 38 30 50
28 34 -5 29 -36 -13 -78 l-40 -40 -114 0 c-102 0 -117 -2 -133 -20 -23 -25
-12 -39 13 -17 15 14 40 17 128 17 l110 0 47 48 c50 51 57 71 31 96 -23 24
-49 19 -87 -14 -44 -39 -67 -39 -67 -2 0 45 -15 52 -120 52 l-96 0 -42 -43z"/>
<path d="M60 185 l-34 -35 77 -77 77 -77 35 34 c19 19 35 39 35 45 0 13 -132
145 -146 145 -5 0 -25 -16 -44 -35z m145 -135 l-25 -25 -62 62 -62 62 24 26
24 26 63 -63 63 -62 -25 -26z"/>
</g>
</svg>
