<?xml version="1.0" standalone="no"?>
<!DOCTYPE svg PUBLIC "-//W3C//DTD SVG 20010904//EN"
 "http://www.w3.org/TR/2001/REC-SVG-20010904/DTD/svg10.dtd">
<svg version="1.0" xmlns="http://www.w3.org/2000/svg"
 width="512.000000pt" height="512.000000pt" viewBox="0 0 512.000000 512.000000"
 preserveAspectRatio="xMidYMid meet">

<g transform="translate(0.000000,512.000000) scale(0.100000,-0.100000)"
fill="#000000" stroke="none">
<path d="M895 4091 c-22 -10 -54 -34 -72 -52 -66 -70 -63 -18 -63 -986 0 -866
0 -879 21 -918 11 -22 37 -55 57 -73 74 -66 -67 -62 2122 -60 l1985 3 41 22
c53 28 107 91 122 142 18 60 16 1733 -2 1784 -22 59 -64 107 -120 133 l-51 24
-2000 0 c-1927 0 -2001 -1 -2040 -19z m3563 -233 c8 -8 12 -50 12 -123 0 -95
3 -114 18 -128 15 -14 48 -17 198 -19 l179 -3 3 -495 c2 -456 1 -496 -15 -507
-12 -9 -66 -13 -182 -13 -212 0 -201 9 -201 -160 0 -85 -4 -132 -12 -143 -12
-16 -114 -17 -1553 -15 l-1540 3 -3 140 c-2 112 -6 143 -19 157 -14 16 -35 18
-168 18 -104 0 -155 4 -163 12 -17 17 -17 979 0 996 8 8 59 12 162 12 194 0
186 -6 186 151 0 84 3 119 13 122 6 3 701 6 1543 6 1177 1 1533 -2 1542 -11z"/>
<path d="M2841 3661 c-10 -6 -16 -32 -19 -73 l-4 -64 -47 -17 c-173 -62 -228
-271 -103 -395 30 -30 80 -61 165 -101 140 -66 177 -100 177 -160 0 -106 -129
-146 -284 -87 -62 24 -71 25 -91 12 -23 -15 -52 -97 -40 -115 10 -17 71 -40
148 -58 l67 -15 0 -52 c0 -72 19 -96 75 -96 57 0 75 24 75 100 l0 55 53 19
c70 24 148 104 166 169 19 66 9 156 -23 210 -38 66 -79 94 -271 183 -77 36
-105 66 -105 115 0 29 6 43 30 63 52 43 109 45 229 9 38 -12 58 -14 70 -6 23
14 51 94 40 114 -7 14 -61 33 -151 53 -26 6 -28 10 -28 54 0 67 -20 92 -73 92
-23 0 -49 -4 -56 -9z"/>
<path d="M237 3105 c-46 -8 -95 -24 -123 -40 -54 -32 -100 -100 -109 -160 -10
-64 228 -1713 255 -1765 40 -78 119 -129 201 -130 26 0 919 126 1986 279 1533
221 1948 283 1979 299 52 27 98 76 90 97 -5 15 -53 16 -513 12 l-508 -3 -1320
-192 c-726 -106 -1325 -190 -1331 -188 -6 2 -19 55 -28 118 -23 154 -23 156
-49 172 -19 13 -39 12 -170 -6 -94 -14 -151 -18 -157 -12 -16 16 -151 976
-139 990 5 6 28 14 51 17 23 3 48 14 55 23 18 25 19 474 1 492 -15 15 -70 14
-171 -3z"/>
</g>
</svg>
