<svg width="70" height="70" viewBox="0 0 70 70" fill="none" xmlns="http://www.w3.org/2000/svg">
<path d="M58.6765 52.915H52.5C51.4706 49.165 48.125 46.665 44.0074 46.665C39.1176 46.665 35 50.665 35 55.415C35 60.165 39.1176 64.165 44.0074 64.165C48.125 64.165 51.4706 61.665 52.5 57.915H58.6765C60.2206 57.915 61.25 56.665 61.25 55.415C61.25 53.915 60.2206 52.915 58.6765 52.915Z" fill="black"/>
<path d="M29.6011 52.499H11.2323C9.74291 52.499 8.75 53.9574 8.75 55.4157C8.75 57.1657 9.99113 58.3324 11.2323 58.3324H29.6011C31.0904 58.3324 32.0833 56.874 32.0833 55.4157C32.0833 53.6657 30.8422 52.499 29.6011 52.499Z" fill="black"/>
<path d="M11.2323 17.4984H29.6011C31.0904 17.4984 32.0833 16.04 32.0833 14.5817C32.0833 13.1234 30.8422 11.665 29.6011 11.665H11.2323C9.74291 11.665 8.75 13.1234 8.75 14.5817C8.75 16.04 9.99113 17.4984 11.2323 17.4984Z" fill="black"/>
<path d="M44.0074 23.332C48.125 23.332 51.4706 20.832 52.5 17.082H58.6765C60.2206 17.082 61.25 15.832 61.25 14.582C61.25 13.332 59.9632 12.082 58.6765 12.082H52.5C51.4706 8.33203 48.125 5.83203 44.0074 5.83203C39.1176 5.83203 35 9.83203 35 14.582C35 19.332 39.1176 23.332 44.0074 23.332Z" fill="black"/>
<path d="M11.3235 37.4971H17.5C18.5294 40.9971 21.875 43.7471 25.9926 43.7471C30.8824 43.7471 35 39.7471 35 34.9971C35 30.2471 30.8824 26.2471 25.9926 26.2471C21.875 26.2471 18.5294 28.7471 17.5 32.4971H11.3235C9.77941 32.4971 8.75 33.7471 8.75 34.9971C8.75 36.2471 10.0368 37.4971 11.3235 37.4971Z" fill="black"/>
<path d="M58.7412 32.082H40.4258C38.9205 32.082 37.9169 33.5404 37.9169 34.9987C37.9169 36.457 39.1714 37.9154 40.4258 37.9154H58.7412C60.2466 37.9154 61.2502 36.457 61.2502 34.9987C61.2502 33.5404 60.2466 32.082 58.7412 32.082Z" fill="black"/>
</svg>
