<svg width="89" height="89" viewBox="0 0 89 89" fill="none" xmlns="http://www.w3.org/2000/svg">
<path d="M74.6029 67.2775H66.75C65.4412 62.5096 61.1875 59.3311 55.9522 59.3311C49.7353 59.3311 44.5 64.4168 44.5 70.4561C44.5 76.4953 49.7353 81.5811 55.9522 81.5811C61.1875 81.5811 65.4412 78.4025 66.75 73.6346H74.6029C76.5662 73.6346 77.875 72.0453 77.875 70.4561C77.875 68.5489 76.5662 67.2775 74.6029 67.2775Z" fill="black"/>
<path d="M37.6356 66.749H14.281C12.3874 66.749 11.125 68.6032 11.125 70.4574C11.125 72.6824 12.703 74.1657 14.281 74.1657H37.6356C39.5293 74.1657 40.7917 72.3115 40.7917 70.4574C40.7917 68.2324 39.2137 66.749 37.6356 66.749Z" fill="black"/>
<path d="M14.281 22.2477H37.6356C39.5293 22.2477 40.7917 20.3936 40.7917 18.5394C40.7917 16.6852 39.2137 14.8311 37.6356 14.8311H14.281C12.3874 14.8311 11.125 16.6852 11.125 18.5394C11.125 20.3936 12.703 22.2477 14.281 22.2477Z" fill="black"/>
<path d="M55.9522 29.665C61.1875 29.665 65.4412 26.4865 66.75 21.7186H74.6029C76.5662 21.7186 77.875 20.1293 77.875 18.54C77.875 16.9508 76.239 15.3615 74.6029 15.3615H66.75C65.4412 10.5936 61.1875 7.41504 55.9522 7.41504C49.7353 7.41504 44.5 12.5008 44.5 18.54C44.5 24.5793 49.7353 29.665 55.9522 29.665Z" fill="black"/>
<path d="M14.3971 47.6747H22.25C23.5588 52.1247 27.8125 55.6211 33.0478 55.6211C39.2647 55.6211 44.5 50.5354 44.5 44.4961C44.5 38.4568 39.2647 33.3711 33.0478 33.3711C27.8125 33.3711 23.5588 36.5497 22.25 41.3175H14.3971C12.4338 41.3175 11.125 42.9068 11.125 44.4961C11.125 46.0854 12.761 47.6747 14.3971 47.6747Z" fill="black"/>
<path d="M74.6853 40.79H51.3986C49.4846 40.79 48.2086 42.6442 48.2086 44.4984C48.2086 46.3525 49.8036 48.2067 51.3986 48.2067H74.6853C76.5993 48.2067 77.8753 46.3525 77.8753 44.4984C77.8753 42.6442 76.5993 40.79 74.6853 40.79Z" fill="black"/>
</svg>
