<?xml version="1.0" standalone="no"?>
<!DOCTYPE svg PUBLIC "-//W3C//DTD SVG 20010904//EN"
 "http://www.w3.org/TR/2001/REC-SVG-20010904/DTD/svg10.dtd">
<svg version="1.0" xmlns="http://www.w3.org/2000/svg"
 width="64.000000pt" height="64.000000pt" viewBox="0 0 64.000000 64.000000"
 preserveAspectRatio="xMidYMid meet">

<g transform="translate(0.000000,64.000000) scale(0.100000,-0.100000)"
fill="#000000" stroke="none">
<path d="M0 448 l0 -103 47 -25 c25 -14 51 -34 56 -45 6 -11 14 -27 19 -35 4
-8 12 -25 18 -38 5 -12 18 -25 27 -29 10 -4 24 -15 31 -25 7 -10 24 -18 37
-18 13 0 27 -5 30 -10 4 -6 15 -10 24 -8 10 2 25 -3 34 -10 28 -23 82 4 127
65 22 29 40 55 40 60 0 4 -12 20 -27 35 -15 15 -21 28 -15 28 7 0 12 5 12 10
0 6 -16 10 -36 10 -48 0 -73 15 -90 56 -17 41 -45 43 -54 5 -9 -40 -30 -38
-30 4 0 32 4 38 35 51 44 18 70 18 127 -2 l46 -15 74 38 c40 21 76 39 81 41 4
2 7 -30 7 -70 l0 -74 -56 -27 c-30 -15 -53 -31 -50 -36 3 -5 33 5 66 23 l60
31 0 93 c0 50 -3 92 -7 92 -5 0 -46 -21 -92 -46 l-84 -45 -45 16 c-58 19 -98
18 -142 -3 -32 -16 -35 -21 -38 -65 -2 -37 1 -49 14 -54 22 -8 47 8 55 38 l6
24 8 -28 c8 -30 48 -67 74 -67 23 -1 85 -56 76 -69 -4 -7 -22 0 -51 20 -25 17
-48 28 -52 24 -4 -4 4 -15 17 -24 56 -37 67 -49 54 -62 -9 -9 -21 -4 -53 21
-22 18 -44 29 -48 25 -4 -4 10 -20 31 -37 34 -27 49 -58 29 -58 -11 0 -42 34
-42 45 0 12 -64 75 -76 75 -7 0 -14 7 -18 15 -3 8 -16 20 -28 25 -13 6 -31 15
-40 22 -14 10 -21 9 -37 -6 -16 -15 -24 -16 -35 -7 -12 10 -9 21 22 71 31 50
42 60 65 60 15 0 27 5 27 10 0 6 -13 10 -29 10 -19 0 -60 19 -108 50 -43 27
-81 50 -85 50 -5 0 -8 -46 -8 -102z m127 6 l26 -20 -27 -47 c-35 -58 -40 -62
-77 -47 -29 12 -29 13 -29 97 l0 84 40 -23 c22 -13 52 -32 67 -44z m63 -162
c0 -14 -49 -56 -57 -49 -3 4 4 18 17 32 24 25 40 32 40 17z m46 -33 c3 -6 -7
-25 -25 -42 -24 -25 -33 -29 -43 -19 -9 9 -6 18 17 42 31 33 40 36 51 19z m50
-40 c3 -6 -7 -25 -25 -42 -24 -25 -33 -29 -43 -19 -9 9 -6 18 17 42 31 33 40
36 51 19z m44 -37 c0 -14 -49 -56 -57 -49 -3 4 4 18 17 32 24 25 40 32 40 17z
m27 -68 c-9 -10 -38 16 -31 28 4 6 13 4 22 -6 9 -8 13 -19 9 -22z"/>
<path d="M495 260 c-3 -5 -1 -10 4 -10 6 0 11 5 11 10 0 6 -2 10 -4 10 -3 0
-8 -4 -11 -10z"/>
</g>
</svg>
