<?xml version="1.0" standalone="no"?>
<!DOCTYPE svg PUBLIC "-//W3C//DTD SVG 20010904//EN"
 "http://www.w3.org/TR/2001/REC-SVG-20010904/DTD/svg10.dtd">
<svg version="1.0" xmlns="http://www.w3.org/2000/svg"
 width="512.000000pt" height="512.000000pt" viewBox="0 0 512.000000 512.000000"
 preserveAspectRatio="xMidYMid meet">

<g transform="translate(0.000000,512.000000) scale(0.100000,-0.100000)"
fill="#000000" stroke="none">
<path d="M1480 4243 c-75 -9 -268 -56 -349 -85 -131 -46 -324 -149 -441 -236
-354 -264 -587 -640 -666 -1077 -25 -139 -25 -431 0 -570 126 -693 643 -1226
1336 -1377 92 -20 133 -23 335 -23 202 0 243 3 335 23 149 33 290 82 419 146
l111 56 108 -54 c127 -64 277 -116 422 -148 92 -20 133 -23 335 -23 202 0 243
3 335 23 448 98 821 349 1071 721 569 846 264 1997 -651 2456 -130 65 -241
105 -396 141 -113 27 -132 28 -354 29 -208 0 -247 -3 -340 -23 -149 -33 -293
-83 -420 -147 l-110 -55 -111 56 c-127 63 -270 113 -414 145 -81 17 -140 22
-310 24 -115 2 -226 1 -245 -2z m535 -171 c541 -122 972 -509 1145 -1031 184
-552 43 -1148 -369 -1562 -64 -64 -142 -135 -173 -158 l-58 -42 -57 42 c-97
71 -283 266 -352 368 -194 292 -284 608 -268 943 18 370 158 704 408 973 67
72 89 103 89 123 -1 56 -54 89 -106 67 -36 -15 -163 -157 -245 -274 -297 -425
-377 -986 -213 -1490 61 -189 177 -399 301 -546 65 -77 205 -215 262 -257 l45
-32 -70 -33 c-88 -41 -255 -96 -364 -120 -121 -26 -468 -26 -590 0 -326 69
-596 219 -826 460 -403 421 -531 1045 -327 1592 80 214 190 383 363 555 139
140 252 222 415 300 150 72 259 105 475 144 14 2 115 3 225 1 156 -2 220 -7
290 -23z m1730 0 c541 -122 972 -509 1145 -1031 58 -175 74 -276 74 -481 0
-205 -16 -306 -74 -481 -177 -532 -610 -915 -1170 -1036 -122 -26 -468 -26
-590 0 -109 24 -276 79 -364 120 l-70 33 45 32 c105 78 270 255 358 385 390
579 387 1328 -10 1907 -87 127 -246 297 -358 380 l-34 26 74 33 c140 63 261
100 409 127 115 20 448 12 565 -14z"/>
</g>
</svg>
