<?xml version="1.0" standalone="no"?>
<!DOCTYPE svg PUBLIC "-//W3C//DTD SVG 20010904//EN"
 "http://www.w3.org/TR/2001/REC-SVG-20010904/DTD/svg10.dtd">
<svg version="1.0" xmlns="http://www.w3.org/2000/svg"
 width="512.000000pt" height="512.000000pt" viewBox="0 0 512.000000 512.000000"
 preserveAspectRatio="xMidYMid meet">

<g transform="translate(0.000000,512.000000) scale(0.100000,-0.100000)"
fill="#000000" stroke="none">
<path d="M349 5102 c-170 -45 -307 -191 -339 -361 -6 -34 -10 -483 -10 -1225
0 -1275 -2 -1223 56 -1338 33 -66 125 -158 190 -191 117 -59 82 -57 1001 -57
l843 0 0 -225 c0 -124 -2 -225 -4 -225 -3 0 -26 13 -53 30 -146 91 -328 97
-487 18 -85 -43 -169 -130 -211 -220 -68 -143 -67 -285 1 -428 34 -70 58 -97
378 -415 362 -362 397 -390 536 -438 64 -22 72 -22 776 -25 802 -3 796 -4 943
69 153 75 269 215 323 389 23 75 23 76 23 655 l0 580 -24 75 c-12 41 -32 92
-42 112 -10 20 -19 40 -19 43 0 3 109 5 243 5 262 0 299 5 401 57 65 33 157
125 190 191 58 115 56 62 55 1347 0 1316 3 1249 -69 1369 -65 107 -188 193
-309 216 -35 6 -798 10 -2190 9 -1986 0 -2141 -1 -2202 -17z m4358 -293 c38
-14 83 -57 99 -96 21 -48 21 -1688 0 -1736 -16 -39 -61 -82 -99 -96 -19 -8
-294 -11 -852 -11 l-823 0 -4 143 c-5 167 -22 222 -96 320 -58 75 -136 130
-227 159 -38 12 -71 23 -73 24 -1 0 9 26 22 57 82 184 70 421 -31 606 -48 90
-96 145 -171 198 -213 153 -468 129 -657 -62 -154 -154 -220 -400 -169 -628
54 -237 223 -418 429 -459 33 -7 61 -12 62 -13 1 0 -5 -25 -13 -55 -8 -32 -14
-103 -14 -172 l0 -118 -824 0 c-558 0 -834 3 -853 11 -38 14 -83 57 -99 96
-12 27 -14 181 -14 867 0 565 3 844 11 863 14 37 57 82 94 99 25 11 401 13
2152 14 1476 0 2130 -3 2150 -11z m-2496 -641 c81 -24 157 -115 185 -220 73
-274 -163 -536 -355 -394 -141 104 -175 350 -71 508 43 66 120 114 184 117 10
1 36 -4 57 -11z m447 -987 c18 -12 41 -40 52 -61 19 -38 20 -61 20 -549 0
-565 0 -568 64 -614 31 -22 34 -22 501 -27 l470 -5 57 -28 c69 -34 149 -118
174 -184 17 -44 19 -92 22 -571 3 -583 2 -601 -62 -698 -19 -28 -56 -65 -82
-83 -95 -63 -81 -62 -835 -59 l-684 3 -55 27 c-44 22 -120 93 -377 350 -282
284 -323 328 -333 366 -21 79 18 170 89 210 51 29 134 31 183 6 18 -9 94 -77
169 -151 92 -90 147 -137 169 -143 66 -19 149 22 176 86 12 28 14 206 14 1029
0 972 0 997 20 1035 18 35 54 68 90 83 33 14 126 1 158 -22z m-2278 -600 c28
-7 353 -11 878 -11 l832 0 0 -170 0 -170 -832 0 -831 0 -43 25 c-67 39 -84 86
-84 229 0 107 2 117 18 112 9 -3 37 -10 62 -15z m4440 -98 c0 -142 -17 -189
-84 -228 l-43 -25 -831 0 -832 0 0 170 0 170 838 1 c647 1 848 4 887 14 28 7
53 13 58 14 4 0 7 -52 7 -116z"/>
<path d="M664 4469 c-44 -12 -90 -69 -99 -118 -6 -35 15 -104 160 -540 91
-275 176 -514 188 -533 13 -19 41 -40 68 -51 38 -16 51 -17 89 -7 82 22 83 25
264 568 119 355 166 510 166 543 0 62 -32 108 -92 133 -42 17 -52 18 -89 7
-78 -23 -87 -41 -188 -344 -52 -154 -97 -275 -101 -270 -4 4 -47 127 -95 273
-49 146 -95 275 -102 287 -17 25 -90 63 -119 62 -10 0 -33 -5 -50 -10z"/>
<path d="M2914 4469 c-41 -12 -91 -69 -100 -114 -9 -49 19 -119 59 -147 27
-19 48 -24 124 -26 l92 -4 3 -431 3 -432 24 -34 c31 -43 100 -75 144 -66 49
11 93 42 111 79 14 30 16 90 16 460 l0 426 88 0 c69 0 94 4 120 20 101 62 95
212 -11 260 -39 18 -67 20 -342 19 -165 0 -314 -5 -331 -10z"/>
<path d="M3943 4460 c-25 -11 -51 -33 -63 -52 -19 -32 -20 -49 -20 -562 0
-514 1 -530 20 -562 12 -18 40 -42 64 -53 39 -19 60 -21 262 -21 192 0 224 3
260 19 82 37 113 123 72 200 -37 71 -66 81 -235 81 l-143 0 0 95 0 95 108 0
c129 0 162 15 194 86 22 52 19 90 -12 141 -30 50 -71 66 -187 71 l-103 5 0 88
0 89 143 0 c169 0 198 10 235 83 19 36 23 54 17 87 -9 53 -55 106 -103 120
-20 5 -134 10 -252 10 -190 0 -220 -3 -257 -20z"/>
</g>
</svg>
